<svg width="200" height="160" viewBox="0 0 200 160" xmlns="http://www.w3.org/2000/svg">
  <defs>
    <linearGradient id="bg" x1="0" y1="0" x2="1" y2="1">
      <stop offset="0%" stop-color="#091519"/>
      <stop offset="100%" stop-color="#000000"/>
    </linearGradient>
    <radialGradient id="glow" cx="50%" cy="50%" r="50%">
      <stop offset="0%" stop-color="#61DAFB" stop-opacity="0.8"/>
      <stop offset="100%" stop-color="#61DAFB" stop-opacity="0"/>
    </radialGradient>
  </defs>
  <rect width="200" height="160" rx="16" fill="url(#bg)"/>
  <rect x="1" y="1" width="198" height="158" rx="15" fill="none" stroke="#3a8296" stroke-opacity="0.4"/>
  <g transform="translate(100,70)">
    <circle r="32" fill="url(#glow)"><animate attributeName="opacity" values="0.3;0.9;0.3" dur="3s" begin="2.25s" repeatCount="indefinite"/></circle>
    <circle r="26" fill="#0a1a20" stroke="#61DAFB" stroke-width="1.5"/>
    <path d="M0,-12 C 6.5,-12 11,-7.5 11,-1 C 11,4.5 7.5,6.5 4.5,7.5 C 5.5,8.5 5.5,9.5 5.5,12 L5.5,15 M0,-12 C -6.5,-12 -11,-7.5 -11,-1 C -11,4.5 -7.5,6.5 -4.5,7.5 C -5.5,8.5 -5.5,9.5 -5.5,12 L-5.5,15 M-5.5,13 C -8.5,14 -9.5,12 -11,11"
          fill="none" stroke="#61DAFB" stroke-width="1.7" stroke-linecap="round" stroke-linejoin="round"/>
    <text y="56" text-anchor="middle" font-family="Consolas, monospace" font-size="13" fill="#c8e1ff">GitHub</text>
  </g>
</svg>
